<svg width="32.000000" height="32.000000" viewBox="0 0 32 32" fill="none" xmlns="http://www.w3.org/2000/svg" xmlns:xlink="http://www.w3.org/1999/xlink">
	<desc>
			Created with Pixso.
	</desc>
	<defs/>
	<path id="Vector" d="M18.1 10L9.7 10C9.28 10 9 10.28 9 10.7L9 21.2L9.7 21.2L9.7 22.59L11.1 22.59L11.1 21.2L16.7 21.2L16.7 22.59L18.1 22.59L18.1 21.2L18.79 21.2L18.79 10.7C18.79 10.28 18.52 10 18.1 10ZM10.4 11.4L12.5 11.4L12.5 12.79L15.3 12.79L15.3 11.4L17.4 11.4L17.4 16.29L10.4 16.29L10.4 11.4ZM11.1 19.79C10.68 19.79 10.4 19.51 10.4 19.09C10.4 18.67 10.68 18.4 11.1 18.4C11.52 18.4 11.8 18.67 11.8 19.09C11.8 19.51 11.52 19.79 11.1 19.79ZM16.7 19.79C16.28 19.79 16 19.51 16 19.09C16 18.67 16.28 18.4 16.7 18.4C17.12 18.4 17.4 18.67 17.4 19.09C17.4 19.51 17.12 19.79 16.7 19.79Z" fill="#5D5FEF" fill-opacity="1.000000" fill-rule="nonzero"/>
	<path id="Vector" d="M22.99 16.3L22.99 13.5L20.2 13.5L20.2 16.3L20.9 16.3L20.9 21.2L20.2 21.2L20.2 22.6L22.99 22.6L22.99 21.2L22.3 21.2L22.3 16.3L22.99 16.3Z" fill="#5D5FEF" fill-opacity="1.000000" fill-rule="nonzero"/>
	<rect id="Frame 152" rx="15.500000" width="31.000000" height="31.000000" transform="translate(0.500000 0.500000)" stroke="#5D5FEF" stroke-opacity="1.000000" stroke-width="1.000000"/>
</svg>
