<svg width="100" height="100" viewBox="0 0 100 100" fill="none" xmlns="http://www.w3.org/2000/svg">
<rect x="0.5" y="0.5" width="99" height="99" rx="49.5" stroke="#DBDBF8"/>
<path d="M78.242 68.4079H67.6863L74.1974 57.0606H76.0973L76.0552 73.3691" stroke="#5D5FEF" stroke-miterlimit="3" stroke-linecap="square"/>
<path d="M64.1292 73.3296L55.9677 73.3046L55.9697 72.7759C55.9697 72.7759 57.6634 70.9986 61.6778 65.2628C62.6282 63.9048 63.1515 62.7591 63.374 61.7991L63.4529 61.182C63.4529 58.9273 61.6251 57.0994 59.3704 57.0994C57.3863 57.0994 55.7329 58.5147 55.3645 60.3906" stroke="#5D5FEF" stroke-miterlimit="10" stroke-linecap="square"/>
<path d="M49.9999 65.7617V71.1816C38.3016 71.1816 28.8184 61.6984 28.8184 50.0001C28.8184 38.3017 38.3016 28.8185 49.9999 28.8185C61.6983 28.8185 71.1815 38.3017 71.1815 50.0001H65.7616" stroke="#303040" stroke-miterlimit="10"/>
<path d="M53.5301 50C53.5301 51.9498 51.9496 53.5303 49.9999 53.5303C48.0501 53.5303 46.4696 51.9498 46.4696 50C46.4696 48.0503 48.0501 46.4697 49.9999 46.4697C51.9496 46.4697 53.5301 48.0503 53.5301 50Z" stroke="#303040" stroke-miterlimit="10"/>
<path d="M49.9999 28.8184V34.2383" stroke="#303040" stroke-miterlimit="10"/>
<path d="M34.2383 50H28.8184" stroke="#303040" stroke-miterlimit="10"/>
<path d="M49.9999 46.4697V39.4092" stroke="#303040" stroke-miterlimit="10"/>
<path d="M47.5036 52.4964L42.9199 57.0801" stroke="#303040" stroke-miterlimit="10"/>
<path d="M49.9999 78.2422C34.4022 78.2422 21.7578 65.5978 21.7578 50.0001C21.7578 34.4024 34.4022 21.758 49.9999 21.758C65.5976 21.758 78.242 34.4024 78.242 50.0001" stroke="#303040" stroke-miterlimit="3" stroke-linecap="square"/>
</svg>
