<svg width="50.000000" height="50.000000" viewBox="0 0 50 50" fill="none" xmlns="http://www.w3.org/2000/svg" xmlns:xlink="http://www.w3.org/1999/xlink">
	<rect id="Rectangle 1" x="0.500000" y="0.500000" rx="24.500000" width="49.000000" height="49.000000" stroke="#DBDBF8" stroke-opacity="1.000000" stroke-width="1.000000"/>
	<path id="Vector" d="M26.1 25.86L28.58 25.86L28.97 22.86L26.1 22.86L26.1 21.22C26.1 19.97 26.44 18.87 27.42 18.87L29 18.87L29 16.25C28.72 16.21 28.13 16.11 27.03 16.11C24.72 16.11 23.37 17.56 23.37 20.86L23.37 22.86L21 22.86L21 25.86L23.37 25.86L23.37 34.1C23.84 34.18 24.31 34.24 24.8 34.24C25.24 34.24 25.67 34.19 26.1 34.12L26.1 25.86Z" fill="#5D5FEF" fill-opacity="1.000000" fill-rule="nonzero"/>
</svg>
