<svg width="50.910461" height="50.112793" viewBox="0 0 50.9105 50.1128" fill="none" xmlns="http://www.w3.org/2000/svg" xmlns:xlink="http://www.w3.org/1999/xlink">
	<defs>
		<filter id="filter_62_314_dd" x="26.059692" y="2.357422" width="24.850769" height="24.861816" filterUnits="userSpaceOnUse" color-interpolation-filters="sRGB">
			<feFlood flood-opacity="0" result="BackgroundImageFix"/>
			<feColorMatrix in="SourceAlpha" type="matrix" values="0 0 0 0 0 0 0 0 0 0 0 0 0 0 0 0 0 0 127 0" result="hardAlpha"/>
			<feOffset dx="0" dy="4"/>
			<feGaussianBlur stdDeviation="3.33333"/>
			<feComposite in2="hardAlpha" operator="out" k2="-1" k3="1"/>
			<feColorMatrix type="matrix" values="0 0 0 0 1 0 0 0 0 1 0 0 0 0 1 0 0 0 0.5 0"/>
			<feBlend mode="normal" in2="BackgroundImageFix" result="effect_dropShadow_1"/>
			<feColorMatrix in="SourceAlpha" type="matrix" values="0 0 0 0 0 0 0 0 0 0 0 0 0 0 0 0 0 0 127 0" result="hardAlpha"/>
			<feOffset dx="0" dy="4"/>
			<feGaussianBlur stdDeviation="3.33333"/>
			<feComposite in2="hardAlpha" operator="out" k2="-1" k3="1"/>
			<feColorMatrix type="matrix" values="0 0 0 0 0 0 0 0 0 0 0 0 0 0 0 0 0 0 0.35 0"/>
			<feBlend mode="normal" in2="effect_dropShadow_1" result="effect_dropShadow_2"/>
			<feBlend mode="normal" in="SourceGraphic" in2="effect_dropShadow_2" result="shape"/>
		</filter>
	</defs>
	<rect id="icon" x="1.500000" y="1.500000" rx="11.000000" width="47.000027" height="47.112915" stroke="#FAFAFA" stroke-opacity="1.000000" stroke-width="3.000000"/>
	<path id="camera icon" d="M25 37.05C31.62 37.05 37 31.67 37 25.05C37 18.43 31.62 13.05 25 13.05C18.37 13.05 13 18.43 13 25.05C13 31.67 18.37 37.05 25 37.05ZM31.22 19.83C32.41 21.24 33.13 23.06 33.13 25.05C33.12 26.9 32.5 28.75 31.22 30.28C30.04 31.69 28.36 32.71 26.41 33.06C24.59 33.38 22.65 33.09 20.93 32.09C19.33 31.17 18.03 29.7 17.36 27.83C16.72 26.1 16.67 24.14 17.36 22.27C17.99 20.54 19.21 19 20.93 18.01C22.53 17.09 24.45 16.7 26.41 17.05C28.23 17.37 29.95 18.3 31.22 19.83Z" fill="#FAFAFA" fill-opacity="1.000000" fill-rule="evenodd"/>
	<g filter="url(#filter_62_314_dd)">
		<ellipse id="flash icon" cx="38.485046" cy="10.788086" rx="2.425375" ry="2.430851" fill="#FAFAFA" fill-opacity="1.000000"/>
	</g>
</svg>
