<svg width="20.000000" height="19.000000" viewBox="0 0 20 19" fill="none" xmlns="http://www.w3.org/2000/svg" xmlns:xlink="http://www.w3.org/1999/xlink"><path id="Star 1" d="M9.21 0.56C9.46 -0.19 10.53 -0.19 10.78 0.56L12.57 6.06C12.68 6.4 13 6.63 13.35 6.63L19.17 6.63C19.97 6.63 20.3 7.64 19.66 8.1L14.95 11.51C14.66 11.71 14.54 12.08 14.65 12.42L16.45 17.92C16.69 18.68 15.83 19.3 15.19 18.84L10.48 15.43C10.19 15.23 9.8 15.23 9.51 15.43L4.8 18.84C4.16 19.3 3.3 18.68 3.54 17.92L5.34 12.42C5.45 12.08 5.33 11.71 5.04 11.51L0.33 8.1C-0.31 7.64 0.02 6.63 0.82 6.63L6.64 6.63C6.99 6.63 7.31 6.4 7.42 6.06L9.21 0.56Z" fill="#5D5FEF" fill-opacity="1.000000" fill-rule="nonzero"/></svg>
