<svg width="100" height="100" viewBox="0 0 100 100" fill="none" xmlns="http://www.w3.org/2000/svg">
<rect x="0.5" y="0.5" width="99" height="99" rx="49.5" stroke="#DBDBF8"/>
<path d="M48.7569 32.7966L51.2431 35.2827" stroke="#303040" stroke-miterlimit="10"/>
<path d="M64.4522 37.3117L66.9383 39.7979" stroke="#303040" stroke-miterlimit="10"/>
<path d="M34.7791 56.094C36.5622 61.5769 40.1582 66.2607 44.9458 69.4111" stroke="#303040" stroke-miterlimit="10"/>
<path d="M65.2235 56.094C63.4402 61.5766 59.8441 66.2608 55.0568 69.4111L57.6261 78.2456H42.3764L44.9457 69.4111" stroke="#303040" stroke-miterlimit="10"/>
<path d="M66.0388 76.9609C64.5025 72.4467 60.263 69.411 55.4945 69.411H44.5082C39.7396 69.411 35.5 72.4467 33.9637 76.9609" stroke="#303040" stroke-miterlimit="10"/>
<path d="M33.0591 37.3117L35.5452 39.7979" stroke="#303040" stroke-miterlimit="10"/>
<path d="M57.2836 43.8719C57.1463 45.4641 57.8209 47.0867 59.2081 48.0946C61.2706 49.5931 64.1391 49.176 65.6951 47.1814C67.2512 49.176 70.1197 49.5931 72.1822 48.0946C74.2447 46.596 74.7345 43.7391 73.3183 41.6429C75.6961 40.7793 76.9792 38.1801 76.1914 35.7555C75.4036 33.3309 72.8378 31.9822 70.4065 32.6812C70.3201 30.153 68.2446 28.1296 65.6951 28.1296C64.0078 28.1296 62.5286 29.0164 61.6958 30.349" stroke="#303040" stroke-miterlimit="10"/>
<path d="M38.3016 30.349C37.4687 29.0165 35.9896 28.1296 34.3022 28.1296C31.7528 28.1296 29.6773 30.1529 29.5908 32.6812C27.1596 31.9822 24.5937 33.3309 23.8059 35.7555C23.0182 38.1801 24.3011 40.7793 26.679 41.6429C25.2629 43.7391 25.7526 46.596 27.8151 48.0945C29.8776 49.5931 32.7461 49.176 34.3021 47.1814C35.8582 49.176 38.7267 49.5931 40.7892 48.0945C42.1765 47.0866 42.8509 45.4641 42.7138 43.8719" stroke="#303040" stroke-miterlimit="10"/>
<path d="M61.6586 30.2245C60.7835 27.531 57.9332 26.0328 55.2323 26.8094C55.1362 24.0007 52.8306 21.7529 49.9985 21.7529C47.1664 21.7529 44.8608 24.0007 44.7647 26.8094C42.0639 26.0328 39.2137 27.531 38.3385 30.2245C37.4633 32.9179 38.8886 35.8054 41.5301 36.7646C39.957 39.0933 40.5011 42.2671 42.7922 43.9317C45.0834 45.5964 48.27 45.1331 49.9985 42.9172C51.7271 45.1331 54.9137 45.5964 57.2049 43.9317C59.4961 42.2671 60.0402 39.0933 58.467 36.7646C61.1085 35.8054 62.5338 32.9179 61.6586 30.2245Z" stroke="#5D5FEF" stroke-miterlimit="10"/>
<path d="M67.3797 48.5351C69.0053 50.6271 69.9606 53.2392 69.9606 56.0938H62.3547C55.5307 56.0938 49.9986 50.5618 49.9986 43.7377V42.9173" stroke="#303040" stroke-miterlimit="10"/>
<path d="M32.6218 48.533C30.9929 50.6261 30.0392 53.236 30.0392 56.0936L37.6452 56.0938C44.4693 56.0938 50.0013 50.5617 50.0013 43.7377V42.9172" stroke="#303040" stroke-miterlimit="10"/>
</svg>
