<svg width="100" height="100" viewBox="0 0 100 100" fill="none" xmlns="http://www.w3.org/2000/svg">
<rect x="0.5" y="0.5" width="99" height="99" rx="49.5" stroke="#DBDBF8"/>
<path d="M35.4834 37.1948H65.4199" stroke="#303040" stroke-miterlimit="10" stroke-linecap="round" stroke-linejoin="round"/>
<path d="M35.4833 44.3169H58.7674" stroke="#303040" stroke-miterlimit="10" stroke-linecap="round" stroke-linejoin="round"/>
<path d="M35.4833 51.3833H46.0833" stroke="#303040" stroke-miterlimit="10" stroke-linecap="round" stroke-linejoin="round"/>
<path d="M35.4833 58.4502H43.4333" stroke="#303040" stroke-miterlimit="10" stroke-linecap="round" stroke-linejoin="round"/>
<path d="M57.1525 68.7949H25.5527V27.2162H75.4471V68.7949H67.1314" stroke="#303040" stroke-miterlimit="10" stroke-linecap="round" stroke-linejoin="round"/>
<path d="M57.1525 63.2143V73.7842L62.142 72.1211L67.1314 73.7842V63.2143" stroke="#5D5FEF" stroke-miterlimit="10" stroke-linecap="round" stroke-linejoin="round"/>
<path d="M62.142 52.1631C65.8134 52.1631 68.7946 55.1441 68.7946 58.8157C68.7946 62.4873 65.8134 65.4683 62.142 65.4683C58.4706 65.4683 55.4894 62.4873 55.4894 58.8157C55.4894 55.1441 58.4706 52.1631 62.142 52.1631Z" stroke="#5D5FEF" stroke-miterlimit="10" stroke-linecap="round" stroke-linejoin="round"/>
</svg>
