<svg width="100" height="100" viewBox="0 0 100 100" fill="none" xmlns="http://www.w3.org/2000/svg">
<rect x="0.5" y="0.5" width="99" height="99" rx="49.5" stroke="#DBDBF8"/>
<path d="M37.721 53.0384V77.1314M37.721 53.0384H28V77.1314H37.721M37.721 53.0384L38.9298 52.1117C41.4728 50.1623 43.533 47.6538 44.9509 44.7803C46.3688 41.9068 47.1063 38.7456 47.1063 35.5413V31.6841H48.454C51.9743 31.6841 54.828 34.5379 54.828 38.0581V50.4227H68.295C70.3369 50.4227 71.9922 52.0779 71.9922 54.1199C71.9922 56.1618 70.3369 57.817 68.295 57.817M37.721 77.1314L45.8738 80L68.2949 80.0001C70.3368 80.0001 71.9921 78.3449 71.9921 76.303C71.9921 74.261 70.3368 72.6058 68.2949 72.6058M63.5627 72.6058H68.2949M68.2949 72.6058C70.3368 72.6058 71.9922 70.9505 71.9922 68.9086C71.9922 66.8667 70.3369 65.2114 68.295 65.2114M68.295 57.817H63.5629M68.295 57.817C70.3369 57.817 71.9922 59.4723 71.9922 61.5142C71.9922 63.5562 70.3369 65.2114 68.295 65.2114M68.295 65.2114H63.5629" stroke="#303040" stroke-miterlimit="10"/>
<path d="M49.9961 19V23.8881M39.1106 23.5089L42.5671 26.9653M34.6018 34.3943H39.4899M65.3903 34.3943H60.5021M60.8814 23.5089L57.425 26.9653" stroke="#5D5FEF" stroke-miterlimit="10"/>
</svg>
