<svg width="32.000000" height="32.000000" viewBox="0 0 32 32" fill="none" xmlns="http://www.w3.org/2000/svg" xmlns:xlink="http://www.w3.org/1999/xlink">
	<desc>
			Created with Pixso.
	</desc>
	<defs/>
	<path id="Vector" d="M19.36 16.5L17.76 14.73C17.66 14.62 17.56 14.4 17.56 14.25L17.5 12.41L17.5 12.36C17.5 12.08 17.27 11.85 16.99 11.85L15.42 11.85L14.8 11.85C14.54 11.85 14.26 12.03 14.16 12.25L12.04 16.74C11.99 16.86 11.98 17 12.03 17.13C12.07 17.26 12.17 17.36 12.3 17.42L12.61 17.55C12.67 17.58 12.74 17.6 12.82 17.6C13.02 17.6 13.21 17.48 13.3 17.31L14.28 15.34L14.28 17.32C14.28 17.33 14.27 17.34 14.27 17.35L12.6 22.58C12.53 22.8 12.55 23.03 12.66 23.23C12.77 23.43 12.95 23.57 13.17 23.63L13.28 23.66C13.35 23.68 13.43 23.69 13.51 23.69C13.89 23.69 14.24 23.44 14.36 23.08L15.92 18.18L16.47 19.54C16.61 19.87 16.75 20.45 16.79 20.81L17.06 23.31C17.1 23.71 17.41 24 17.81 24C17.87 24 17.94 23.99 18 23.97L18.11 23.95C18.56 23.84 18.88 23.38 18.82 22.92L18.43 19.87C18.38 19.49 18.21 18.88 18.06 18.52L17.53 17.3C17.52 17.29 17.51 17.27 17.5 17.25L17.5 16.43L18.46 17.42C18.55 17.52 18.68 17.58 18.81 17.58C18.95 17.58 19.08 17.52 19.18 17.42L19.35 17.23C19.54 17.03 19.54 16.7 19.36 16.5Z" fill="#5D5FEF" fill-opacity="1.000000" fill-rule="nonzero"/>
	<path id="Vector" d="M16.04 11.41C16.98 11.41 17.74 10.65 17.74 9.7C17.74 8.76 16.98 8 16.04 8C15.09 8 14.33 8.76 14.33 9.7C14.33 10.65 15.09 11.41 16.04 11.41Z" fill="#5D5FEF" fill-opacity="1.000000" fill-rule="nonzero"/>
	<rect id="Frame 150" rx="15.500000" width="31.000000" height="31.000000" transform="translate(0.500000 0.500000)" stroke="#5D5FEF" stroke-opacity="1.000000" stroke-width="1.000000"/>
</svg>
