<svg width="32.000000" height="32.000000" viewBox="0 0 32 32" fill="none" xmlns="http://www.w3.org/2000/svg" xmlns:xlink="http://www.w3.org/1999/xlink">
	<desc>
			Created with Pixso.
	</desc>
	<defs/>
	<path id="Vector" d="M23.88 14.15C23.85 14.04 23.71 13.95 23.6 13.95C23.11 13.95 22.62 13.95 22.14 13.95C22.02 13.95 21.89 14.04 21.85 14.15C21.81 14.25 21.79 14.35 21.77 14.44L20.79 11.74C20.63 11.29 20.2 11 19.73 11L12.26 11C11.79 11 11.36 11.29 11.2 11.74L10.22 14.44C10.2 14.35 10.18 14.25 10.14 14.15C10.1 14.04 9.97 13.95 9.85 13.95C9.37 13.95 8.88 13.95 8.39 13.95C8.28 13.95 8.14 14.04 8.11 14.15C7.96 14.58 7.96 14.82 8.11 15.25C8.14 15.37 8.28 15.45 8.39 15.45C8.88 15.45 9.37 15.45 9.85 15.45C9.85 15.45 9.86 15.45 9.86 15.45L9.84 15.51C9.54 15.61 9.32 15.89 9.32 16.22L9.32 18.49L9.32 18.67L9.32 21.18C9.32 21.37 9.48 21.54 9.68 21.54L11.5 21.54C11.69 21.54 11.86 21.37 11.86 21.18L11.86 19.42L20.13 19.42L20.13 21.18C20.13 21.37 20.3 21.54 20.49 21.54L22.31 21.54C22.51 21.54 22.67 21.37 22.67 21.18L22.67 18.67L22.67 18.49L22.67 16.22C22.67 15.89 22.45 15.61 22.15 15.51L22.13 15.45C22.13 15.45 22.14 15.45 22.14 15.45C22.62 15.45 23.11 15.45 23.6 15.45C23.71 15.45 23.85 15.37 23.88 15.25C24.03 14.82 24.03 14.58 23.88 14.15ZM12.4 12.32L19.59 12.32L20.73 15.47L11.26 15.47L12.4 12.32ZM12.6 17.69L11.08 17.69C10.76 17.69 10.49 17.43 10.49 17.11C10.49 16.78 10.76 16.52 11.08 16.52L12.6 16.52C12.92 16.52 13.19 16.78 13.19 17.11C13.19 17.43 12.92 17.69 12.6 17.69ZM20.91 17.69L19.39 17.69C19.07 17.69 18.8 17.43 18.8 17.11C18.8 16.78 19.07 16.52 19.39 16.52L20.91 16.52C21.23 16.52 21.5 16.78 21.5 17.11C21.5 17.43 21.23 17.69 20.91 17.69Z" fill="#5D5FEF" fill-opacity="1.000000" fill-rule="nonzero"/>
	<rect id="Frame 151" rx="15.500000" width="31.000000" height="31.000000" transform="translate(0.500000 0.500000)" stroke="#5D5FEF" stroke-opacity="1.000000" stroke-width="1.000000"/>
</svg>
