<svg width="100" height="100" viewBox="0 0 100 100" fill="none" xmlns="http://www.w3.org/2000/svg">
<rect x="0.5" y="0.5" width="99" height="99" rx="49.5" stroke="#DBDBF8"/>
<path d="M72.8514 39.5703V46.6016" stroke="#303040" stroke-miterlimit="10" stroke-linecap="round" stroke-linejoin="round"/>
<mask id="mask0_36_150" style="mask-type:luminance" maskUnits="userSpaceOnUse" x="20" y="20" width="60" height="60">
<path d="M79.4998 79.5V20.5002H20.5V79.5H79.4998Z" fill="white" stroke="white"/>
</mask>
<g mask="url(#mask0_36_150)">
<mask id="path-4-inside-1_36_150" fill="white">
<path d="M62 67.5C62 67.2239 62.2239 67 62.5 67C62.7761 67 63 67.2239 63 67.5C63 67.7761 62.7761 68 62.5 68C62.2239 68 62 67.7761 62 67.5Z"/>
</mask>
<path d="M62 67.5C62 67.2239 62.2239 67 62.5 67C62.7761 67 63 67.2239 63 67.5C63 67.7761 62.7761 68 62.5 68C62.2239 68 62 67.7761 62 67.5Z" fill="#303040"/>
<path d="M61 67.5C61 66.6716 61.6716 66 62.5 66V68C62.7762 68 63 67.7762 63 67.5H61ZM62.5 66C63.3284 66 64 66.6716 64 67.5H62C62 67.7762 62.2238 68 62.5 68V66ZM64 67.5C64 68.3284 63.3284 69 62.5 69V67C62.2238 67 62 67.2238 62 67.5H64ZM62.5 69C61.6716 69 61 68.3284 61 67.5H63C63 67.2238 62.7762 67 62.5 67V69Z" fill="#303040" mask="url(#path-4-inside-1_36_150)"/>
<path d="M76.367 78.2422H48.2421V60.6641H76.367V78.2422Z" stroke="#303040" stroke-miterlimit="10" stroke-linecap="round" stroke-linejoin="round"/>
<path d="M65.8202 43.0859C64.7056 41.9713 63.3823 41.0872 61.9261 40.484C60.4698 39.8808 58.9089 39.5703 57.3326 39.5703H55.2733V21.7579H57.3326C58.9089 21.7579 60.4698 22.0683 61.9261 22.6715C63.3823 23.2747 64.7056 24.1589 65.8202 25.2735V43.0859Z" stroke="#5D5FEF" stroke-miterlimit="10" stroke-linecap="round" stroke-linejoin="round"/>
<path d="M65.8202 25.2735C66.9348 24.1589 68.258 23.2747 69.7143 22.6715C71.1706 22.0683 72.7314 21.7579 74.3077 21.7579H76.367V39.5703H74.3077C72.7314 39.5703 71.1706 39.8808 69.7143 40.484C68.258 41.0872 66.9348 41.9713 65.8202 43.0859" stroke="#5D5FEF" stroke-miterlimit="10" stroke-linecap="round" stroke-linejoin="round"/>
<path d="M58.789 60.6641C58.789 56.7809 55.641 53.6329 51.7577 53.6329H44.7265V49.142C46.8192 47.9241 48.2421 45.682 48.2421 43.086V39.9467C48.2421 36.4442 45.8488 33.1978 42.3918 32.6354C37.9866 31.9188 34.1797 35.3001 34.1797 39.5704V43.086C34.1797 45.682 35.6025 47.9241 37.6953 49.142V53.6329H30.664C26.7808 53.6329 23.6328 56.7809 23.6328 60.6641V78.2422H48.2421C48.2421 74.359 45.0941 71.211 41.2109 71.211H30.664V60.6641" stroke="#303040" stroke-miterlimit="10" stroke-linecap="round" stroke-linejoin="round"/>
<path d="M37.6953 53.6328L41.2109 57.1484L44.7265 53.6328" stroke="#303040" stroke-miterlimit="10" stroke-linecap="round" stroke-linejoin="round"/>
</g>
</svg>
