<svg width="50.000000" height="50.000000" viewBox="0 0 50 50" fill="none" xmlns="http://www.w3.org/2000/svg" xmlns:xlink="http://www.w3.org/1999/xlink">
	<rect id="Rectangle 1" x="0.500000" y="0.500000" rx="24.500000" width="49.000000" height="49.000000" stroke="#DBDBF8" stroke-opacity="1.000000" stroke-width="1.000000"/>
	<path id="instagram" d="M28.27 17L21.72 17C20.85 17 20.27 17.19 19.79 17.38C19.31 17.58 18.83 17.87 18.34 18.35C17.86 18.84 17.67 19.23 17.38 19.81C17.19 20.3 17.09 20.88 17 21.75L17 28.35C17 29.23 17.19 29.81 17.38 30.29C17.57 30.78 17.86 31.26 18.34 31.75C18.83 32.24 19.21 32.43 19.79 32.72C20.27 32.91 20.85 33.01 21.72 33.11L28.27 33.11C29.14 33.11 29.72 32.91 30.2 32.72C30.68 32.53 31.16 32.24 31.65 31.75C32.13 31.26 32.32 30.88 32.61 30.29C32.8 29.81 32.9 29.23 33 28.35L33 21.75C33 20.88 32.8 20.3 32.61 19.81C32.42 19.32 32.13 18.84 31.65 18.35C31.16 17.87 30.78 17.67 30.2 17.38C29.72 17.19 29.14 17.09 28.27 17ZM21.72 18.45L28.27 18.45C29.04 18.45 29.43 18.65 29.72 18.74C30.1 18.94 30.39 19.03 30.68 19.32C30.97 19.62 31.16 19.91 31.26 20.3C31.36 20.59 31.45 20.98 31.55 21.75L31.55 28.35C31.55 29.13 31.36 29.52 31.26 29.81C31.07 30.2 30.97 30.49 30.68 30.78C30.39 31.07 30.1 31.26 29.72 31.36C29.43 31.46 29.04 31.56 28.27 31.65L21.72 31.65C20.95 31.65 20.56 31.46 20.27 31.36C19.89 31.17 19.6 31.07 19.31 30.78C19.02 30.49 18.83 30.2 18.73 29.81C18.63 29.52 18.54 29.13 18.44 28.35L18.44 21.75C18.44 20.98 18.63 20.59 18.73 20.3C18.92 19.91 19.02 19.62 19.31 19.32C19.6 19.03 19.89 18.84 20.27 18.74C20.56 18.65 20.95 18.55 21.72 18.45ZM30.2 20.78C30.2 21.32 29.77 21.75 29.24 21.75C28.7 21.75 28.27 21.32 28.27 20.78C28.27 20.24 28.7 19.81 29.24 19.81C29.77 19.81 30.2 20.24 30.2 20.78ZM25 20.88C22.68 20.88 20.85 22.72 20.85 25.05C20.85 27.38 22.68 29.23 25 29.23C27.31 29.23 29.14 27.38 29.14 25.05C29.14 22.72 27.31 20.88 25 20.88ZM25 27.77C23.55 27.77 22.3 26.61 22.3 25.05C22.3 23.6 23.45 22.33 25 22.33C26.44 22.33 27.69 23.5 27.69 25.05C27.69 26.51 26.44 27.77 25 27.77Z" fill="#5D5FEF" fill-opacity="1.000000" fill-rule="evenodd"/>
</svg>
